<svg id="Icon" xmlns="http://www.w3.org/2000/svg" xmlns:xlink="http://www.w3.org/1999/xlink" width="90" height="90" viewBox="0 0 90 90">
  <defs>
    <clipPath id="clip-path">
      <path id="Color" d="M16.977,34.466a3.463,3.463,0,0,1-2.458-1.015L2.231,21.161a1.9,1.9,0,0,1-.553-1.175L.008,2.092A1.907,1.907,0,0,1,.561.561,1.88,1.88,0,0,1,2.093.01L19.986,1.678a1.916,1.916,0,0,1,1.175.551L33.449,14.517a3.482,3.482,0,0,1,0,4.922L19.438,33.449A3.456,3.456,0,0,1,16.977,34.466ZM4.034,4.036,5.426,18.941l11.55,11.552L30.493,16.979,18.941,5.427Zm8.413,11.284a2.873,2.873,0,1,1,2.031-.841A2.854,2.854,0,0,1,12.447,15.319Z" transform="translate(0 0)"/>
    </clipPath>
  </defs>
  <g id="Elements_Oval" data-name="Elements / Oval">
    <circle id="Color-2" data-name="Color" cx="45" cy="45" r="45" fill="#fff5cc"/>
  </g>
  <g id="Pricetag" transform="translate(22.021 22.021)">
    <g id="Group_105" data-name="Group 105" transform="translate(5.745 5.744)">
      <path id="Color-3" data-name="Color" d="M16.977,34.466a3.463,3.463,0,0,1-2.458-1.015L2.231,21.161a1.9,1.9,0,0,1-.553-1.175L.008,2.092A1.907,1.907,0,0,1,.561.561,1.88,1.88,0,0,1,2.093.01L19.986,1.678a1.916,1.916,0,0,1,1.175.551L33.449,14.517a3.482,3.482,0,0,1,0,4.922L19.438,33.449A3.456,3.456,0,0,1,16.977,34.466ZM4.034,4.036,5.426,18.941l11.55,11.552L30.493,16.979,18.941,5.427Zm8.413,11.284a2.873,2.873,0,1,1,2.031-.841A2.854,2.854,0,0,1,12.447,15.319Z" transform="translate(0 0)" fill="#ffb200"/>
    </g>
  </g>
</svg>
