<svg id="Icon" xmlns="http://www.w3.org/2000/svg" xmlns:xlink="http://www.w3.org/1999/xlink" width="90" height="90" viewBox="0 0 90 90">
  <defs>
    <clipPath id="clip-path">
      <path id="Color" d="M28.124,34.468H6.342a3.343,3.343,0,0,1-3.469-3.192V22.909A4.021,4.021,0,0,1,0,18.766V11.873C0,9.51,1.514,7.659,3.447,7.659H4.2a5.414,5.414,0,0,1-.371-1.915A5.893,5.893,0,0,1,9.848,0c3.048,0,5.533,1.544,7.387,4.589C19.087,1.544,21.574,0,24.621,0a5.893,5.893,0,0,1,6.018,5.744,5.369,5.369,0,0,1-.371,1.915h.753c1.933,0,3.447,1.851,3.447,4.214v6.894A4.02,4.02,0,0,1,31.6,22.909v8.367A3.344,3.344,0,0,1,28.124,34.468Zm-8.975-11.49v7.661h8.615l0-7.661Zm-12.446,0v7.661h8.615l0-7.661ZM19.149,11.49v7.659h11.44a1.5,1.5,0,0,0,.05-.383V11.873a1.521,1.521,0,0,0-.05-.383H19.149Zm-15.269,0a1.521,1.521,0,0,0-.05.383v6.894a1.521,1.521,0,0,0,.05.383h11.44V11.49H3.879ZM24.621,3.829c-2.43,0-3.9,2.082-4.7,3.829h4.7a2.068,2.068,0,0,0,2.189-1.915A2.068,2.068,0,0,0,24.621,3.829Zm-14.773,0A2.068,2.068,0,0,0,7.659,5.744,2.068,2.068,0,0,0,9.848,7.659h4.695C13.729,5.913,12.256,3.829,9.848,3.829Z"/>
    </clipPath>
  </defs>
  <g id="Elements_Oval" data-name="Elements / Oval">
    <circle id="Color-2" data-name="Color" cx="45" cy="45" r="45" fill="#ccf8fe"/>
  </g>
  <g id="Gift" transform="translate(22.021 22.021)">
    <g id="Group_140" data-name="Group 140" transform="translate(5.745 5.745)">
      <path id="Color-3" data-name="Color" d="M28.124,34.468H6.342a3.343,3.343,0,0,1-3.469-3.192V22.909A4.021,4.021,0,0,1,0,18.766V11.873C0,9.51,1.514,7.659,3.447,7.659H4.2a5.414,5.414,0,0,1-.371-1.915A5.893,5.893,0,0,1,9.848,0c3.048,0,5.533,1.544,7.387,4.589C19.087,1.544,21.574,0,24.621,0a5.893,5.893,0,0,1,6.018,5.744,5.369,5.369,0,0,1-.371,1.915h.753c1.933,0,3.447,1.851,3.447,4.214v6.894A4.02,4.02,0,0,1,31.6,22.909v8.367A3.344,3.344,0,0,1,28.124,34.468Zm-8.975-11.49v7.661h8.615l0-7.661Zm-12.446,0v7.661h8.615l0-7.661ZM19.149,11.49v7.659h11.44a1.5,1.5,0,0,0,.05-.383V11.873a1.521,1.521,0,0,0-.05-.383H19.149Zm-15.269,0a1.521,1.521,0,0,0-.05.383v6.894a1.521,1.521,0,0,0,.05.383h11.44V11.49H3.879ZM24.621,3.829c-2.43,0-3.9,2.082-4.7,3.829h4.7a2.068,2.068,0,0,0,2.189-1.915A2.068,2.068,0,0,0,24.621,3.829Zm-14.773,0A2.068,2.068,0,0,0,7.659,5.744,2.068,2.068,0,0,0,9.848,7.659h4.695C13.729,5.913,12.256,3.829,9.848,3.829Z" fill="#02a0fc"/>
    </g>
  </g>
</svg>
