<svg id="Icon" xmlns="http://www.w3.org/2000/svg" xmlns:xlink="http://www.w3.org/1999/xlink" width="90" height="90" viewBox="0 0 90 90">
  <defs>
    <clipPath id="clip-path">
      <path id="Color" d="M14.353,34.456h-.014A14.1,14.1,0,0,1,4.192,30.163,14.8,14.8,0,0,1,4.175,9.544l1.882-1.9a1.923,1.923,0,0,1,1.366-.563,1.961,1.961,0,0,1,.5.064A1.922,1.922,0,0,1,9.273,8.51a6.884,6.884,0,0,0,1.255,2.856c.737-.776,1.91-3.771,1.91-8.505,0-.282,0-.548-.016-.813a1.912,1.912,0,0,1,.589-1.51A1.952,1.952,0,0,1,14.361,0a1.872,1.872,0,0,1,1.357.567l8.789,8.979a14.774,14.774,0,0,1,.019,20.619A14.158,14.158,0,0,1,14.353,34.456ZM6.682,12.464a11.017,11.017,0,0,0,.246,15.021,10.316,10.316,0,0,0,7.414,3.142h.01a10.359,10.359,0,0,0,7.438-3.142,10.936,10.936,0,0,0-.017-15.259L16.058,6.384c-.681,5.587-2.752,8.924-5.537,8.924-1.062,0-2.59-.493-3.838-2.844Z" transform="translate(0 0)"/>
    </clipPath>
  </defs>
  <g id="Elements_Oval" data-name="Elements / Oval">
    <circle id="Color-2" data-name="Color" cx="45" cy="45" r="45" fill="#e2fbd7"/>
  </g>
  <g id="Fire" transform="translate(22.021 22.021)">
    <g id="Group_209" data-name="Group 209" transform="translate(7.671 5.759)">
      <path id="Color-3" data-name="Color" d="M14.353,34.456h-.014A14.1,14.1,0,0,1,4.192,30.163,14.8,14.8,0,0,1,4.175,9.544l1.882-1.9a1.923,1.923,0,0,1,1.366-.563,1.961,1.961,0,0,1,.5.064A1.922,1.922,0,0,1,9.273,8.51a6.884,6.884,0,0,0,1.255,2.856c.737-.776,1.91-3.771,1.91-8.505,0-.282,0-.548-.016-.813a1.912,1.912,0,0,1,.589-1.51A1.952,1.952,0,0,1,14.361,0a1.872,1.872,0,0,1,1.357.567l8.789,8.979a14.774,14.774,0,0,1,.019,20.619A14.158,14.158,0,0,1,14.353,34.456ZM6.682,12.464a11.017,11.017,0,0,0,.246,15.021,10.316,10.316,0,0,0,7.414,3.142h.01a10.359,10.359,0,0,0,7.438-3.142,10.936,10.936,0,0,0-.017-15.259L16.058,6.384c-.681,5.587-2.752,8.924-5.537,8.924-1.062,0-2.59-.493-3.838-2.844Z" transform="translate(0 0)" fill="#34b53a"/>
    </g>
  </g>
</svg>
