<svg id="Icon" xmlns="http://www.w3.org/2000/svg" xmlns:xlink="http://www.w3.org/1999/xlink" width="90" height="90" viewBox="0 0 90 90">
  <defs>
    <clipPath id="clip-path">
      <path id="Color" d="M28.724,34.468H5.744A5.751,5.751,0,0,1,0,28.724V5.744A5.751,5.751,0,0,1,5.744,0H19.478A5.7,5.7,0,0,1,23.54,1.684l9.244,9.244a5.71,5.71,0,0,1,1.684,4.064V28.724A5.751,5.751,0,0,1,28.724,34.468ZM5.744,3.829A1.917,1.917,0,0,0,3.829,5.744v22.98a1.917,1.917,0,0,0,1.915,1.915l3.829,0,0-5.748a1.917,1.917,0,0,1,1.915-1.915H22.978a1.917,1.917,0,0,1,1.915,1.915v5.746h3.831a1.917,1.917,0,0,0,1.915-1.915V14.992a1.906,1.906,0,0,0-.562-1.356L20.833,4.391a1.935,1.935,0,0,0-1.355-.562H13.4V11.49h5.744a1.915,1.915,0,0,1,0,3.829H11.49A1.917,1.917,0,0,1,9.575,13.4V3.829ZM13.4,26.809v3.829h7.657l0-3.829Z"/>
    </clipPath>
  </defs>
  <g id="Elements_Oval" data-name="Elements / Oval">
    <circle id="Color-2" data-name="Color" cx="45" cy="45" r="45" fill="#dad7fe"/>
  </g>
  <g id="Save" transform="translate(22.021 22.021)">
    <g id="Group_18" data-name="Group 18" transform="translate(5.745 5.745)">
      <path id="Color-3" data-name="Color" d="M28.724,34.468H5.744A5.751,5.751,0,0,1,0,28.724V5.744A5.751,5.751,0,0,1,5.744,0H19.478A5.7,5.7,0,0,1,23.54,1.684l9.244,9.244a5.71,5.71,0,0,1,1.684,4.064V28.724A5.751,5.751,0,0,1,28.724,34.468ZM5.744,3.829A1.917,1.917,0,0,0,3.829,5.744v22.98a1.917,1.917,0,0,0,1.915,1.915l3.829,0,0-5.748a1.917,1.917,0,0,1,1.915-1.915H22.978a1.917,1.917,0,0,1,1.915,1.915v5.746h3.831a1.917,1.917,0,0,0,1.915-1.915V14.992a1.906,1.906,0,0,0-.562-1.356L20.833,4.391a1.935,1.935,0,0,0-1.355-.562H13.4V11.49h5.744a1.915,1.915,0,0,1,0,3.829H11.49A1.917,1.917,0,0,1,9.575,13.4V3.829ZM13.4,26.809v3.829h7.657l0-3.829Z" fill="#4339f2"/>
    </g>
  </g>
</svg>
