<svg id="Icon" xmlns="http://www.w3.org/2000/svg" width="90" height="90" viewBox="0 0 90 90">
  <g id="Elements_Oval" data-name="Elements / Oval">
    <circle id="Color" cx="45" cy="45" r="45" fill="#ffe5d3"/>
  </g>
  <g id="Bulb" transform="translate(22.021 22.021)">
    <path id="Color-2" data-name="Color" d="M21.063,38.3H17.234A3.834,3.834,0,0,1,13.4,34.468V26.8a9.575,9.575,0,1,1,11.488,0v7.667A3.834,3.834,0,0,1,21.063,38.3ZM19.149,13.4a5.739,5.739,0,0,0-2.875,10.709,1.923,1.923,0,0,1,.96,1.661v8.693h3.829V25.775a1.923,1.923,0,0,1,.96-1.661A5.739,5.739,0,0,0,19.149,13.4Zm17.234,7.659H32.553a1.915,1.915,0,0,1,0-3.829h3.829a1.915,1.915,0,0,1,0,3.829Zm-30.639,0H1.915a1.915,1.915,0,1,1,0-3.829H5.744a1.915,1.915,0,1,1,0,3.829Zm23.047-9.31a1.915,1.915,0,0,1-1.33-3.292L30.215,5.8a1.91,1.91,0,0,1,1.334-.538,1.913,1.913,0,0,1,1.327,3.289l-2.754,2.663A1.91,1.91,0,0,1,28.791,11.754Zm-19.283,0a1.911,1.911,0,0,1-1.332-.536L5.422,8.555A1.915,1.915,0,1,1,8.083,5.8L10.838,8.46a1.917,1.917,0,0,1,.047,2.707A1.9,1.9,0,0,1,9.508,11.754Zm9.641-4.095a1.917,1.917,0,0,1-1.915-1.915V1.915a1.915,1.915,0,1,1,3.829,0V5.744A1.917,1.917,0,0,1,19.149,7.659Z" transform="translate(3.83 3.829)" fill="#ff3a29"/>
  </g>
</svg>
